STARTFONT 2.1
FONT -thai-dbthaitext-bold-r-normal--55-401-100-100-p-167-tis620-0
SIZE 40 100 100
FONTBOUNDINGBOX 73 64 -18 -23
STARTPROPERTIES 25
FOUNDRY "thai"
FAMILY_NAME "dbthaitext"
WEIGHT_NAME "bold"
SLANT "r"
SETWIDTH_NAME "normal"
ADD_STYLE_NAME ""
PIXEL_SIZE 55
POINT_SIZE 401
RESOLUTION_X 100
RESOLUTION_Y 100
SPACING "p"
AVERAGE_WIDTH 167
CHARSET_REGISTRY "tis620"
CHARSET_ENCODING "0"
FONT "-thai-dbthaitext-bold-r-normal--55-401-100-100-p-167-tis620-0"
COPYRIGHT "Typeface (c) The Monotype Corporation plc. Data (c) The Monotype Corporation plc/Type Solutions Inc. 1990-1992. All Rights Reserved"
RAW_PIXELSIZE 1000
RAW_POINTSIZE 723
RAW_ASCENT 738
RAW_DESCENT 408
RAW_AVERAGE_WIDTH 3023
FACE_NAME "DBThaiTextBoldne5"
DEFAULT_CHAR 0
FONT_ASCENT 41
FONT_DESCENT 23
ENDPROPERTIES
CHARS 190
STARTCHAR space
ENCODING 32
SWIDTH 252 0
DWIDTH 14 0
BBX 0 0 0 0
BITMAP
ENDCHAR
STARTCHAR exclam
ENCODING 33
SWIDTH 180 0
DWIDTH 10 0
BBX 5 23 3 0
BITMAP
f8
f8
f8
f8
f8
f8
f8
f8
f8
f8
f0
70
70
70
70
70
00
00
f8
f8
f8
f8
f8
ENDCHAR
STARTCHAR quotedbl
ENCODING 34
SWIDTH 270 0
DWIDTH 15 0
BBX 11 8 2 15
BITMAP
f1e0
f1e0
f1e0
f1e0
f1e0
f1e0
60c0
60c0
ENDCHAR
STARTCHAR numbersign
ENCODING 35
SWIDTH 306 0
DWIDTH 17 0
BBX 17 23 0 -1
BITMAP
038f00
038e00
038e00
038e00
078e00
070e00
7fff80
7fff80
7fff80
7fff80
0f1c00
0e3c00
0e3800
0e3800
ffff00
ffff00
ffff00
ffff00
1c7000
1c7000
3c7000
387000
38e000
ENDCHAR
STARTCHAR dollar
ENCODING 36
SWIDTH 306 0
DWIDTH 17 0
BBX 16 28 1 -4
BITMAP
0180
0180
0ff0
3ffc
7ffc
79be
f99e
f19e
f180
f980
7f80
7fc0
3ff0
0ffc
01fe
01be
019e
f19f
f19e
f19e
f9be
7ffc
3ffc
1ff0
0380
0180
0180
0180
ENDCHAR
STARTCHAR percent
ENCODING 37
SWIDTH 504 0
DWIDTH 28 0
BBX 27 24 0 -1
BITMAP
06000000
3fc03800
7fe07000
7fe07000
f9f0e000
f0f0e000
f0f1c000
f0f1c000
f9f38000
7fe30000
3fc70000
1f8e0400
000e3f80
001cffc0
001cffc0
0039f3e0
0039e1e0
0071c1e0
0071e1e0
00e1f3e0
01c0ffc0
01c0ff80
03803f00
03800000
ENDCHAR
STARTCHAR ampersand
ENCODING 38
SWIDTH 414 0
DWIDTH 23 0
BBX 20 24 2 -1
BITMAP
03e000
0ff000
1ff800
1ffc00
1e3c00
3e3c00
3e3c00
1f7800
1ff800
0ff000
07c000
1fe1c0
3ff1c0
7dfbc0
f8ffc0
f07f80
f03f80
f03f00
f81f80
fc7f80
7fffc0
3ffbe0
1fe1f0
038000
ENDCHAR
STARTCHAR apostrophe
ENCODING 39
SWIDTH 144 0
DWIDTH 8 0
BBX 4 8 2 15
BITMAP
f0
f0
f0
f0
f0
f0
60
60
ENDCHAR
STARTCHAR parenleft
ENCODING 40
SWIDTH 180 0
DWIDTH 10 0
BBX 8 29 1 -6
BITMAP
07
0e
0e
1c
1c
38
38
78
70
70
f0
f0
f0
f0
f0
f0
f0
f0
f0
70
78
78
38
38
3c
1c
1e
0e
06
ENDCHAR
STARTCHAR parenright
ENCODING 41
SWIDTH 180 0
DWIDTH 10 0
BBX 7 29 1 -6
BITMAP
e0
70
70
30
38
38
18
1c
1c
0c
0e
0e
0e
0e
0e
0e
0e
0e
0e
1c
1c
1c
1c
38
38
38
70
70
e0
ENDCHAR
STARTCHAR asterisk
ENCODING 42
SWIDTH 216 0
DWIDTH 12 0
BBX 10 11 1 12
BITMAP
1c00
1c00
1c00
d9c0
ffc0
7f80
1e00
3f00
7780
7380
2100
ENDCHAR
STARTCHAR plus
ENCODING 43
SWIDTH 324 0
DWIDTH 18 0
BBX 15 15 2 0
BITMAP
0380
0380
0380
0380
0380
0380
fffe
fffe
fffe
fffe
0380
0380
0380
0380
0380
ENDCHAR
STARTCHAR comma
ENCODING 44
SWIDTH 198 0
DWIDTH 11 0
BBX 5 8 3 -3
BITMAP
70
f8
f8
f8
38
30
60
c0
ENDCHAR
STARTCHAR minus
ENCODING 45
SWIDTH 180 0
DWIDTH 10 0
BBX 9 4 1 7
BITMAP
ff80
ff80
ff80
ff80
ENDCHAR
STARTCHAR period
ENCODING 46
SWIDTH 144 0
DWIDTH 8 0
BBX 5 5 1 0
BITMAP
20
f8
f8
f8
70
ENDCHAR
STARTCHAR slash
ENCODING 47
SWIDTH 162 0
DWIDTH 9 0
BBX 9 24 0 -1
BITMAP
0180
0180
0300
0300
0300
0200
0600
0600
0600
0c00
0c00
0c00
1800
1800
1800
3000
3000
3000
2000
6000
6000
6000
c000
8000
ENDCHAR
STARTCHAR 0
ENCODING 48
SWIDTH 306 0
DWIDTH 17 0
BBX 15 24 1 -1
BITMAP
07c0
1ff0
3ff8
3ff8
7c7c
783c
f83e
f01e
f01e
f01e
f01e
f01e
f01e
f01e
f01e
f01e
f01e
783c
783c
7c7c
3ff8
3ff8
1ff0
0380
ENDCHAR
STARTCHAR 1
ENCODING 49
SWIDTH 306 0
DWIDTH 17 0
BBX 10 22 2 0
BITMAP
01c0
03c0
07c0
3fc0
ffc0
ffc0
ffc0
03c0
03c0
03c0
03c0
03c0
03c0
03c0
03c0
03c0
03c0
03c0
03c0
03c0
03c0
03c0
ENDCHAR
STARTCHAR 2
ENCODING 50
SWIDTH 306 0
DWIDTH 17 0
BBX 15 23 1 0
BITMAP
07c0
1ff0
3ff8
7ffc
7c3c
783e
f81e
f81e
001e
003e
003c
007c
01f8
03f0
07c0
1f80
3f00
3e00
7c00
7ffe
fffe
fffe
fffe
ENDCHAR
STARTCHAR 3
ENCODING 51
SWIDTH 306 0
DWIDTH 17 0
BBX 15 24 1 -1
BITMAP
07c0
1ff0
3ff8
7ffc
783c
f03c
f03c
f03c
003c
0078
03f0
03f0
03fc
007c
003e
001e
f01e
f01e
f03e
787c
7ffc
3ff8
1ff0
07c0
ENDCHAR
STARTCHAR 4
ENCODING 52
SWIDTH 306 0
DWIDTH 17 0
BBX 15 22 1 0
BITMAP
01f8
01f8
03f8
03f8
07f8
0f78
0e78
1e78
1c78
3878
7878
7078
e078
fffe
fffe
fffe
fffe
0078
0078
0078
0078
0078
ENDCHAR
STARTCHAR 5
ENCODING 53
SWIDTH 306 0
DWIDTH 17 0
BBX 15 23 1 -1
BITMAP
3ffc
3ffc
3ffc
3ffc
3800
3800
7800
7be0
7ff8
7ff8
7ffc
783c
003e
001e
001e
001e
f01e
f83e
f87c
7ffc
3ff8
1fe0
0780
ENDCHAR
STARTCHAR 6
ENCODING 54
SWIDTH 306 0
DWIDTH 17 0
BBX 15 24 1 -1
BITMAP
07e0
0ff8
1ffc
3e7c
7c3c
781e
7800
f000
f1e0
f7f0
fff8
fffc
fc3c
f81e
f00e
f00e
f00e
701e
783e
7c7c
3ffc
1ff8
0ff0
0380
ENDCHAR
STARTCHAR 7
ENCODING 55
SWIDTH 306 0
DWIDTH 17 0
BBX 16 22 1 0
BITMAP
ffff
ffff
ffff
ffff
001e
003c
0078
00f8
00f0
01f0
03e0
03e0
03c0
07c0
0780
0780
0f80
0f80
0f00
0f00
1f00
1f00
ENDCHAR
STARTCHAR 8
ENCODING 56
SWIDTH 306 0
DWIDTH 17 0
BBX 17 24 0 -1
BITMAP
07f000
1ffc00
3ffe00
7e3e00
7c1f00
7c0f00
780f00
7c0f00
7c1e00
3f7e00
1ff800
3ffc00
7ffe00
7c1f00
fc1f00
f80f80
f80f80
f80f00
fc1f00
7e3f00
7ffe00
3ffc00
1ff800
03c000
ENDCHAR
STARTCHAR 9
ENCODING 57
SWIDTH 306 0
DWIDTH 17 0
BBX 15 24 1 -1
BITMAP
07c0
1ff0
3ff8
7ffc
787c
f03c
f01e
e01e
e01e
f01e
f03e
7c7e
7ffe
3ffe
1fde
071e
001e
001c
f83c
787c
7cf8
3ff0
1fe0
0780
ENDCHAR
STARTCHAR colon
ENCODING 58
SWIDTH 180 0
DWIDTH 10 0
BBX 4 18 3 0
BITMAP
60
f0
f0
f0
20
00
00
00
00
00
00
00
00
00
f0
f0
f0
60
ENDCHAR
STARTCHAR semicolon
ENCODING 59
SWIDTH 198 0
DWIDTH 11 0
BBX 5 20 3 -3
BITMAP
70
f0
f8
f8
70
00
00
00
00
00
00
00
70
f8
f8
f8
38
30
60
c0
ENDCHAR
STARTCHAR less
ENCODING 60
SWIDTH 324 0
DWIDTH 18 0
BBX 15 15 1 0
BITMAP
0002
001e
007e
03fe
1ffc
7fe0
ff00
fc00
fe00
ffc0
3ff8
07fe
00fe
003e
0006
ENDCHAR
STARTCHAR equal
ENCODING 61
SWIDTH 324 0
DWIDTH 18 0
BBX 15 12 2 1
BITMAP
fffe
fffe
fffe
fffe
0000
0000
0000
0000
fffe
fffe
fffe
fffe
ENDCHAR
STARTCHAR greater
ENCODING 62
SWIDTH 324 0
DWIDTH 18 0
BBX 15 15 1 0
BITMAP
8000
f000
fc00
ff80
7ff0
0ffc
01fe
007e
00fe
07fe
3ff8
ffc0
fe00
f800
c000
ENDCHAR
STARTCHAR question
ENCODING 63
SWIDTH 342 0
DWIDTH 19 0
BBX 15 23 2 0
BITMAP
1ff0
3ff8
7ffc
7ffe
7c7e
f83e
f01e
f01e
003e
007e
00fc
01f8
03f0
03e0
07c0
0780
0780
0000
07c0
07c0
07c0
07c0
07c0
ENDCHAR
STARTCHAR at
ENCODING 64
SWIDTH 558 0
DWIDTH 31 0
BBX 29 28 1 -4
BITMAP
001fe000
007ffc00
00fffe00
03f03f80
07c007c0
0f0003c0
0e0001e0
1c0000f0
380fdc70
381ffc70
70387838
70707838
e0e03838
e0e03838
e1c03038
e1c07070
e1c07070
e1c0e0f0
e1e1f1e0
70f3f3c0
707f7f80
783e3f00
3c000000
1e000000
0f800800
07fff800
01fffc00
003fe000
ENDCHAR
STARTCHAR A
ENCODING 65
SWIDTH 414 0
DWIDTH 23 0
BBX 21 23 1 0
BITMAP
00f800
01fc00
01fc00
01fc00
03fe00
03fe00
03de00
07df00
07cf00
078f00
0f8f80
0f8780
0f0780
1f03c0
1fffc0
1fffc0
3fffe0
3fffe0
3c01e0
7c01f0
7800f0
7800f0
f800f8
ENDCHAR
STARTCHAR B
ENCODING 66
SWIDTH 414 0
DWIDTH 23 0
BBX 19 23 2 0
BITMAP
fffc00
ffff00
ffff80
ffffc0
f807c0
f803c0
f803c0
f803c0
f807c0
ffff80
ffff00
ffff80
ffffc0
f807c0
f803e0
f803e0
f803e0
f803e0
f807e0
ffffc0
ffff80
ffff00
fffe00
ENDCHAR
STARTCHAR C
ENCODING 67
SWIDTH 414 0
DWIDTH 23 0
BBX 20 25 1 -1
BITMAP
01f800
07fe00
0fff80
1fffc0
3fffe0
3e03e0
7c01f0
7c01f0
7800f0
f80000
f80000
f00000
f00000
f00000
f80000
f80000
f801f0
7801f0
7c01f0
7e03e0
3f8fe0
1fffc0
0fff80
07fe00
00f000
ENDCHAR
STARTCHAR D
ENCODING 68
SWIDTH 414 0
DWIDTH 23 0
BBX 20 23 2 0
BITMAP
fffc00
ffff00
ffff80
ffffc0
f80fe0
f807e0
f803e0
f803f0
f801f0
f801f0
f801f0
f801f0
f801f0
f801f0
f803f0
f803e0
f803e0
f807e0
f81fc0
ffff80
ffff00
fffe00
fff800
ENDCHAR
STARTCHAR E
ENCODING 69
SWIDTH 378 0
DWIDTH 21 0
BBX 18 23 2 0
BITMAP
ffff80
ffff80
ffff80
ffff80
f80000
f80000
f80000
f80000
f80000
ffff00
ffff00
ffff00
ffff00
f80000
f80000
f80000
f80000
f80000
f80000
ffffc0
ffffc0
ffffc0
ffffc0
ENDCHAR
STARTCHAR F
ENCODING 70
SWIDTH 342 0
DWIDTH 19 0
BBX 16 23 2 0
BITMAP
ffff
ffff
ffff
ffff
f800
f800
f800
f800
f800
fffe
fffe
fffe
fffe
f800
f800
f800
f800
f800
f800
f800
f800
f800
f800
ENDCHAR
STARTCHAR G
ENCODING 71
SWIDTH 432 0
DWIDTH 24 0
BBX 21 25 1 -1
BITMAP
00fe00
03ff80
0fffc0
1fffe0
1fc7f0
3f01f0
7e00f8
7c0078
7c0000
f80000
f80000
f80000
f80ff8
f80ff8
f80ff8
f80ff8
fc0078
7c0078
7e00f8
3f01f8
3f87f8
1fffb8
0fff38
03fe38
007800
ENDCHAR
STARTCHAR H
ENCODING 72
SWIDTH 414 0
DWIDTH 23 0
BBX 19 23 2 0
BITMAP
f803e0
f803e0
f803e0
f803e0
f803e0
f803e0
f803e0
f803e0
f803e0
ffffe0
ffffe0
ffffe0
ffffe0
f803e0
f803e0
f803e0
f803e0
f803e0
f803e0
f803e0
f803e0
f803e0
f803e0
ENDCHAR
STARTCHAR I
ENCODING 73
SWIDTH 162 0
DWIDTH 9 0
BBX 5 23 2 0
BITMAP
f8
f8
f8
f8
f8
f8
f8
f8
f8
f8
f8
f8
f8
f8
f8
f8
f8
f8
f8
f8
f8
f8
f8
ENDCHAR
STARTCHAR J
ENCODING 74
SWIDTH 306 0
DWIDTH 17 0
BBX 14 24 1 -1
BITMAP
007c
007c
007c
007c
007c
007c
007c
007c
007c
007c
007c
007c
007c
007c
007c
f87c
f87c
f87c
f87c
fcfc
7ff8
7ff0
1fe0
0780
ENDCHAR
STARTCHAR K
ENCODING 75
SWIDTH 414 0
DWIDTH 23 0
BBX 21 23 2 0
BITMAP
f803e0
f807c0
f80f80
f81f00
f83f00
f87e00
f8fc00
f9f800
fbf000
ffe000
ffe000
fff000
fff800
fef800
fc7c00
f87e00
f83f00
f81f00
f80f80
f80fc0
f807e0
f803e0
f801f0
ENDCHAR
STARTCHAR L
ENCODING 76
SWIDTH 342 0
DWIDTH 19 0
BBX 16 23 2 0
BITMAP
f800
f800
f800
f800
f800
f800
f800
f800
f800
f800
f800
f800
f800
f800
f800
f800
f800
f800
f800
ffff
ffff
ffff
ffff
ENDCHAR
STARTCHAR M
ENCODING 77
SWIDTH 468 0
DWIDTH 26 0
BBX 23 23 2 0
BITMAP
fe01fe
fe01fe
ff01fe
ff01fe
ff03fe
ff03fe
ff83fe
fb83be
fb83be
fb87be
fbc7be
fbc73e
f9c73e
f9cf3e
f9ef3e
f9ee3e
f8ee3e
f8fe3e
f8fe3e
f8fc3e
f8fc3e
f87c3e
f87c3e
ENDCHAR
STARTCHAR N
ENCODING 78
SWIDTH 414 0
DWIDTH 23 0
BBX 19 23 2 0
BITMAP
f803e0
fc03e0
fc03e0
fe03e0
ff03e0
ff03e0
ff83e0
ff83e0
fbc3e0
fbc3e0
f9e3e0
f8f3e0
f8f3e0
f87be0
f87be0
f83fe0
f83fe0
f81fe0
f80fe0
f80fe0
f807e0
f807e0
f803e0
ENDCHAR
STARTCHAR O
ENCODING 79
SWIDTH 432 0
DWIDTH 24 0
BBX 23 25 1 -1
BITMAP
00fe00
07ff80
0fffe0
1ffff0
3fc7f8
3f01f8
7e00fc
7c007c
7c007c
f8007e
f8003e
f8003e
f8003e
f8003e
f8003e
f8003e
78007c
7c007c
7e00fc
3f01f8
3fc7f8
1ffff0
0fffe0
03ff80
007c00
ENDCHAR
STARTCHAR P
ENCODING 80
SWIDTH 378 0
DWIDTH 21 0
BBX 18 23 2 0
BITMAP
fffc00
ffff00
ffff80
ffff80
f80fc0
f807c0
f807c0
f807c0
f807c0
f807c0
f80f80
ffff80
ffff00
fffe00
fff800
f80000
f80000
f80000
f80000
f80000
f80000
f80000
f80000
ENDCHAR
STARTCHAR Q
ENCODING 81
SWIDTH 432 0
DWIDTH 24 0
BBX 22 26 2 -2
BITMAP
01fc00
07ff80
0fffc0
1fffe0
3f8ff0
3e03f0
7c01f8
7800f8
7800f8
f000fc
f0007c
f0007c
f0007c
f0007c
f0007c
f0047c
780cf8
781ff8
7c1ff8
3e07f0
3f8fe0
1ffff0
0ffff8
07ff7c
00f830
000010
ENDCHAR
STARTCHAR R
ENCODING 82
SWIDTH 414 0
DWIDTH 23 0
BBX 19 23 2 0
BITMAP
fffe00
ffff80
ffffc0
ffffc0
f807e0
f803e0
f803e0
f803e0
f807e0
f807c0
ffff80
ffff00
ffff00
ffff80
f807c0
f807c0
f807c0
f807c0
f807c0
f807c0
f807c0
f807e0
f807e0
ENDCHAR
STARTCHAR S
ENCODING 83
SWIDTH 378 0
DWIDTH 21 0
BBX 19 25 1 -1
BITMAP
07f800
1ffe00
3fff80
3fff80
7e1fc0
7c07c0
7807c0
7803c0
780000
7e0000
7fe000
3ffe00
1fff80
07ffc0
003fc0
0007e0
0003e0
f803e0
f803e0
7c03e0
7e0fc0
3fffc0
1fff80
0ffe00
01f000
ENDCHAR
STARTCHAR T
ENCODING 84
SWIDTH 342 0
DWIDTH 19 0
BBX 19 23 0 0
BITMAP
ffffe0
ffffe0
ffffe0
ffffe0
01f000
01f000
01f000
01f000
01f000
01f000
01f000
01f000
01f000
01f000
01f000
01f000
01f000
01f000
01f000
01f000
01f000
01f000
01f000
ENDCHAR
STARTCHAR U
ENCODING 85
SWIDTH 414 0
DWIDTH 23 0
BBX 19 24 2 -1
BITMAP
f803e0
f803e0
f803e0
f803e0
f803e0
f803e0
f803e0
f803e0
f803e0
f803e0
f803e0
f803e0
f803e0
f803e0
f803e0
f803e0
f803e0
f803e0
fc07e0
7f1fc0
3fffc0
1fff80
0ffe00
01f000
ENDCHAR
STARTCHAR V
ENCODING 86
SWIDTH 378 0
DWIDTH 21 0
BBX 20 23 1 0
BITMAP
f801f0
7c01e0
7c03e0
7c03e0
3c03c0
3e03c0
3e07c0
1e0780
1e0780
1f0f80
0f0f00
0f0f00
0f1f00
079e00
079e00
07be00
03fc00
03fc00
03fc00
01f800
01f800
01f800
00f000
ENDCHAR
STARTCHAR W
ENCODING 87
SWIDTH 540 0
DWIDTH 30 0
BBX 29 23 0 0
BITMAP
f80f80f8
f80f80f8
7c0fc0f0
7c1fc1f0
7c1fc1f0
3c1fc1e0
3c1dc1e0
3e1dc3e0
3e3de3e0
1e3de3c0
1e38e3c0
1e38e3c0
1f38e780
0f78f780
0f78f780
0f707780
07707700
07f07f00
07f07f00
07e03f00
03e03e00
03e03e00
03e03e00
ENDCHAR
STARTCHAR X
ENCODING 88
SWIDTH 378 0
DWIDTH 21 0
BBX 20 23 1 0
BITMAP
7c03e0
7e07e0
3e07c0
3f0fc0
1f0f80
0f9f00
0fbf00
07fe00
07fc00
03fc00
01f800
01f800
01fc00
03fc00
07fe00
07fe00
0f9f00
1f9f80
1f0f80
3f0fc0
3e07c0
7c07e0
fc03f0
ENDCHAR
STARTCHAR Y
ENCODING 89
SWIDTH 378 0
DWIDTH 21 0
BBX 19 23 1 0
BITMAP
f803e0
7c07e0
7c07c0
3e0fc0
3e0f80
1e0f80
1f1f00
0f1f00
0fbe00
07be00
07fc00
03fc00
03f800
01f000
01f000
01f000
01f000
01f000
01f000
01f000
01f000
01f000
01f000
ENDCHAR
STARTCHAR Z
ENCODING 90
SWIDTH 342 0
DWIDTH 19 0
BBX 17 23 1 0
BITMAP
ffff80
ffff80
ffff80
ffff80
001f80
001f00
003e00
007c00
00fc00
01f800
01f000
03e000
07e000
0fc000
0f8000
1f0000
3e0000
7e0000
fc0000
ffff80
ffff80
ffff80
ffff80
ENDCHAR
STARTCHAR bracketleft
ENCODING 91
SWIDTH 180 0
DWIDTH 10 0
BBX 7 29 3 -6
BITMAP
fe
fe
fe
e0
e0
e0
e0
e0
e0
e0
e0
e0
e0
e0
e0
e0
e0
e0
e0
e0
e0
e0
e0
e0
e0
e0
fe
fe
fe
ENDCHAR
STARTCHAR backslash
ENCODING 92
SWIDTH 162 0
DWIDTH 9 0
BBX 9 23 0 -1
BITMAP
c000
4000
6000
6000
6000
3000
3000
3000
1800
1800
1800
0c00
0c00
0c00
0400
0600
0600
0200
0300
0300
0300
0180
0180
ENDCHAR
STARTCHAR bracketright
ENCODING 93
SWIDTH 180 0
DWIDTH 10 0
BBX 7 29 1 -6
BITMAP
fe
fe
fe
0e
0e
0e
0e
0e
0e
0e
0e
0e
0e
0e
0e
0e
0e
0e
0e
0e
0e
0e
0e
0e
0e
0e
fe
fe
fe
ENDCHAR
STARTCHAR asciicircum
ENCODING 94
SWIDTH 324 0
DWIDTH 18 0
BBX 15 13 2 9
BITMAP
07c0
07c0
0fe0
0fe0
0fe0
1ef0
1e70
3c78
3c78
3838
783c
703c
f01e
ENDCHAR
STARTCHAR underscore
ENCODING 95
SWIDTH 306 0
DWIDTH 17 0
BBX 19 3 -1 -7
BITMAP
ffffe0
ffffe0
ffffe0
ENDCHAR
STARTCHAR grave
ENCODING 96
SWIDTH 162 0
DWIDTH 9 0
BBX 9 9 0 5
BITMAP
3e00
7f00
ff80
ff80
ff80
ff80
ff80
7f00
3e00
ENDCHAR
STARTCHAR a
ENCODING 97
SWIDTH 306 0
DWIDTH 17 0
BBX 16 19 1 -1
BITMAP
0ff0
3ff8
7ffc
7c3e
783e
783e
003e
007e
1ffe
3ffe
7f9e
f81e
f83e
f83e
f87e
fffe
7ffe
7f9f
1e00
ENDCHAR
STARTCHAR b
ENCODING 98
SWIDTH 342 0
DWIDTH 19 0
BBX 16 24 2 -1
BITMAP
f000
f000
f000
f000
f000
f000
f3f0
f7fc
fffc
fffe
fc3e
f81f
f81f
f00f
f00f
f00f
f00f
f81f
f81e
fe7e
fffc
fffc
f7f8
01e0
ENDCHAR
STARTCHAR c
ENCODING 99
SWIDTH 306 0
DWIDTH 17 0
BBX 15 19 1 -1
BITMAP
07e0
0ff8
1ff8
3ffc
7efc
783e
f81e
f000
f000
f000
f000
f000
f81e
f83e
7c3c
7ffc
3ff8
1ff0
0780
ENDCHAR
STARTCHAR d
ENCODING 100
SWIDTH 342 0
DWIDTH 19 0
BBX 16 24 1 -1
BITMAP
000f
000f
000f
000f
000f
07cf
1fef
3fff
3fff
7e7f
7c3f
f81f
f80f
f00f
f00f
f00f
f80f
f81f
781f
7c3f
3fff
3fef
1fef
0780
ENDCHAR
STARTCHAR e
ENCODING 101
SWIDTH 306 0
DWIDTH 17 0
BBX 16 19 1 -1
BITMAP
07e0
1ff8
3ffc
7ffe
7e3e
7c1e
f81f
f81f
ffff
ffff
ffff
f800
f800
f81f
7c3e
7ffe
3ffc
1ff0
03c0
ENDCHAR
STARTCHAR f
ENCODING 102
SWIDTH 180 0
DWIDTH 10 0
BBX 10 23 0 0
BITMAP
07c0
0fc0
1fc0
1f00
1e00
1e00
ffc0
ffc0
ffc0
1e00
1e00
1e00
1e00
1e00
1e00
1e00
1e00
1e00
1e00
1e00
1e00
1e00
1e00
ENDCHAR
STARTCHAR g
ENCODING 103
SWIDTH 342 0
DWIDTH 19 0
BBX 15 25 1 -7
BITMAP
07ce
1fee
3ffe
3ffe
7e7e
7c3e
781e
f00e
f00e
f00e
f00e
f00e
f80e
781e
7c3e
7ffe
3ffe
1ffe
078e
000e
f81e
7e7c
7ffc
3ff0
0fe0
ENDCHAR
STARTCHAR h
ENCODING 104
SWIDTH 342 0
DWIDTH 19 0
BBX 15 23 2 0
BITMAP
f000
f000
f000
f000
f000
f000
f3f8
f7fc
fffe
fffe
fc3e
f81e
f01e
f01e
f01e
f01e
f01e
f01e
f01e
f01e
f01e
f01e
f01e
ENDCHAR
STARTCHAR i
ENCODING 105
SWIDTH 162 0
DWIDTH 9 0
BBX 4 23 2 0
BITMAP
f0
f0
f0
f0
00
00
f0
f0
f0
f0
f0
f0
f0
f0
f0
f0
f0
f0
f0
f0
f0
f0
f0
ENDCHAR
STARTCHAR j
ENCODING 106
SWIDTH 162 0
DWIDTH 9 0
BBX 6 30 0 -7
BITMAP
3c
3c
3c
3c
00
00
3c
3c
3c
3c
3c
3c
3c
3c
3c
3c
3c
3c
3c
3c
3c
3c
3c
3c
3c
3c
fc
fc
f8
f0
ENDCHAR
STARTCHAR k
ENCODING 107
SWIDTH 306 0
DWIDTH 17 0
BBX 15 23 2 0
BITMAP
f000
f000
f000
f000
f000
f000
f07c
f07c
f0f8
f1f0
f3e0
f7c0
ff80
ffc0
ffc0
ffe0
f9e0
f1f0
f0f8
f0f8
f07c
f07c
f03e
ENDCHAR
STARTCHAR l
ENCODING 108
SWIDTH 162 0
DWIDTH 9 0
BBX 4 23 2 0
BITMAP
f0
f0
f0
f0
f0
f0
f0
f0
f0
f0
f0
f0
f0
f0
f0
f0
f0
f0
f0
f0
f0
f0
f0
ENDCHAR
STARTCHAR m
ENCODING 109
SWIDTH 504 0
DWIDTH 28 0
BBX 24 18 2 0
BITMAP
f1e0f8
f3f1fc
f7fbfe
ffffff
feffbf
f83e0f
f03c0f
f03c0f
f03c0f
f03c0f
f03c0f
f03c0f
f03c0f
f03c0f
f03c0f
f03c0f
f03c0f
f03c0f
ENDCHAR
STARTCHAR n
ENCODING 110
SWIDTH 342 0
DWIDTH 19 0
BBX 15 18 2 0
BITMAP
f1f0
f7f8
f7fc
fffc
fc7e
f83e
f01e
f01e
f01e
f01e
f01e
f01e
f01e
f01e
f01e
f01e
f01e
f01e
ENDCHAR
STARTCHAR o
ENCODING 111
SWIDTH 342 0
DWIDTH 19 0
BBX 17 19 1 -1
BITMAP
07f000
1ffc00
3ffe00
3ffe00
7e3f00
7c1f00
f80f80
f80f80
f00f80
f00f80
f00f80
f80f80
f80f80
7c1f00
7e3f00
3ffe00
3ffe00
0ff800
03e000
ENDCHAR
STARTCHAR p
ENCODING 112
SWIDTH 342 0
DWIDTH 19 0
BBX 16 25 2 -7
BITMAP
f1e0
f7f8
f7fc
fffc
fe7e
fc3e
f81f
f81f
f01f
f00f
f00f
f01f
f81f
f81f
fc3e
fffe
fffc
f7f8
f1e0
f000
f000
f000
f000
f000
f000
ENDCHAR
STARTCHAR q
ENCODING 113
SWIDTH 342 0
DWIDTH 19 0
BBX 16 25 1 -7
BITMAP
078f
1fef
3fff
3fff
7e7f
7c3f
f81f
f81f
f00f
f00f
f00f
f00f
f81f
781f
7c3f
7fff
3fef
1fcf
078f
000f
000f
000f
000f
000f
000f
ENDCHAR
STARTCHAR r
ENCODING 114
SWIDTH 216 0
DWIDTH 12 0
BBX 10 18 2 0
BITMAP
f1c0
f3c0
f7c0
f7c0
ffc0
fc00
f800
f000
f000
f000
f000
f000
f000
f000
f000
f000
f000
f000
ENDCHAR
STARTCHAR s
ENCODING 115
SWIDTH 306 0
DWIDTH 17 0
BBX 16 19 1 -1
BITMAP
07c0
1ff0
3ffc
7ffe
7c3e
781e
7c00
7f80
7ff8
3ffc
0ffe
01ff
003f
f81f
fc1f
7ffe
3ffe
1ffc
07e0
ENDCHAR
STARTCHAR t
ENCODING 116
SWIDTH 180 0
DWIDTH 10 0
BBX 9 22 0 -1
BITMAP
1e00
1e00
1e00
1e00
ff80
ff80
ff80
1e00
1e00
1e00
1e00
1e00
1e00
1e00
1e00
1e00
1e00
1e00
1f80
1f80
0f80
0380
ENDCHAR
STARTCHAR u
ENCODING 117
SWIDTH 342 0
DWIDTH 19 0
BBX 15 18 2 -1
BITMAP
f01e
f01e
f01e
f01e
f01e
f01e
f01e
f01e
f01e
f01e
f01e
f01e
f83e
fc7e
7ffe
7fde
3f9e
0e00
ENDCHAR
STARTCHAR v
ENCODING 118
SWIDTH 306 0
DWIDTH 17 0
BBX 16 17 1 0
BITMAP
f01f
781e
781e
783e
3c3c
3c3c
3c3c
1e78
1e78
1e78
0f70
0ff0
0ff0
07e0
07e0
07e0
03c0
ENDCHAR
STARTCHAR w
ENCODING 119
SWIDTH 432 0
DWIDTH 24 0
BBX 24 17 0 0
BITMAP
f83c1f
f87e1f
787e1e
787e1e
7c7e3e
3c7e3c
3cff3c
3ce73c
3ce77c
1ee778
1fe778
1fe7f8
0fc3f0
0fc3f0
0fc3f0
0fc3f0
0781e0
ENDCHAR
STARTCHAR x
ENCODING 120
SWIDTH 306 0
DWIDTH 17 0
BBX 16 17 1 0
BITMAP
f83f
7c3e
3e3c
3e7c
1f78
0ff0
0ff0
07e0
03c0
07e0
0ff0
0ff0
1ff8
3e7c
3e3c
7c3e
fc1f
ENDCHAR
STARTCHAR y
ENCODING 121
SWIDTH 306 0
DWIDTH 17 0
BBX 17 24 0 -7
BITMAP
f80f80
7c0f00
7c0f00
7c1f00
3c1e00
3e1e00
3e3e00
1e3c00
1f3c00
1f7c00
0f7800
0f7800
0ff800
07f000
07f000
07f000
03e000
03e000
03c000
07c000
3fc000
3f8000
3f8000
3e0000
ENDCHAR
STARTCHAR z
ENCODING 122
SWIDTH 288 0
DWIDTH 16 0
BBX 14 17 1 0
BITMAP
fff8
fff8
fff8
fff8
01f8
03f0
07e0
0fc0
0f80
1f00
3e00
7c00
f800
fffc
fffc
fffc
fffc
ENDCHAR
STARTCHAR braceleft
ENCODING 123
SWIDTH 216 0
DWIDTH 12 0
BBX 9 29 1 -6
BITMAP
0780
0f80
1f80
1e00
1c00
1c00
1c00
1c00
1c00
1c00
1c00
1c00
3c00
f800
e000
f800
3c00
1c00
1c00
1c00
1c00
1c00
1c00
1c00
1c00
1c00
1f80
0f80
0780
ENDCHAR
STARTCHAR bar
ENCODING 124
SWIDTH 162 0
DWIDTH 9 0
BBX 3 29 3 -6
BITMAP
e0
e0
e0
e0
e0
e0
e0
e0
e0
e0
e0
e0
e0
e0
e0
e0
e0
e0
e0
e0
e0
e0
e0
e0
e0
e0
e0
e0
e0
ENDCHAR
STARTCHAR braceright
ENCODING 125
SWIDTH 216 0
DWIDTH 12 0
BBX 9 29 2 -6
BITMAP
f000
f800
fc00
1c00
1c00
1c00
1c00
1c00
1c00
1c00
1c00
1c00
1e00
0f80
0380
0f80
1e00
1c00
1c00
1c00
1c00
1c00
1c00
1c00
1c00
1c00
fc00
f800
f000
ENDCHAR
STARTCHAR asciitilde
ENCODING 126
SWIDTH 324 0
DWIDTH 18 0
BBX 14 6 2 4
BITMAP
3800
7e1c
7f9c
c3f8
c0f0
0020
ENDCHAR
STARTCHAR exclamdown
ENCODING 161
SWIDTH 360 0
DWIDTH 20 0
BBX 17 20 1 0
BITMAP
03f800
1ffc00
3ffe00
7c1f00
700780
fe0780
1f0380
1f0380
3c0380
380380
380380
380380
380380
380380
380380
380380
380380
380380
380380
380380
ENDCHAR
STARTCHAR cent
ENCODING 162
SWIDTH 360 0
DWIDTH 20 0
BBX 16 20 1 0
BITMAP
1f07
7fc7
ffe7
fce7
c6e7
c6e7
fee7
fde7
39c7
03c7
0387
0387
0387
0387
0387
0387
0387
0fff
0fff
0ffe
ENDCHAR
STARTCHAR sterling
ENCODING 163
SWIDTH 396 0
DWIDTH 22 0
BBX 18 19 1 0
BITMAP
1cf1c0
7ff9c0
6799c0
e819c0
fe39c0
fe79c0
e771c0
e771c0
fe71c0
7e71c0
3c71c0
0071c0
0071c0
0071c0
0071c0
0071c0
03ffc0
03ff80
03ff80
ENDCHAR
STARTCHAR currency
ENCODING 164
SWIDTH 360 0
DWIDTH 20 0
BBX 17 20 1 0
BITMAP
03f000
0ffc00
1ffe00
3c1f00
780f00
708780
e3e380
e7f380
e67380
763380
777380
7fe380
3fc380
1e0380
1e0380
0e0380
0e0380
0e0380
0e0380
0e0380
ENDCHAR
STARTCHAR yen
ENCODING 165
SWIDTH 360 0
DWIDTH 20 0
BBX 17 19 1 0
BITMAP
073c00
1ffe00
3fff00
788700
708780
e3e380
e7f380
e67380
763380
777380
7fe380
3fc380
1e0380
1e0380
0e0380
0e0380
0e0380
0e0380
0e0380
ENDCHAR
STARTCHAR brokenbar
ENCODING 166
SWIDTH 450 0
DWIDTH 25 0
BBX 22 19 1 0
BITMAP
1ce01c
3ff81c
77b81c
e01c1c
fc381c
fe781c
e7701c
e7701c
e7701c
7e701c
3cf81c
03fe1c
07ff9c
0e73fc
0e71fc
0e70fc
0ef07c
07f03c
03e01c
ENDCHAR
STARTCHAR section
ENCODING 167
SWIDTH 288 0
DWIDTH 16 0
BBX 12 20 1 -1
BITMAP
01e0
03e0
0770
0630
0770
03f0
63f0
e070
f070
7070
7870
3c70
1c70
1e70
0e70
0f70
07f0
03f0
03e0
0080
ENDCHAR
STARTCHAR diaeresis
ENCODING 168
SWIDTH 342 0
DWIDTH 19 0
BBX 15 19 1 0
BITMAP
07e0
3ff8
7ffc
f81e
600e
200e
0f0e
1f8e
3b8e
31ce
31ce
3fce
1fce
00ee
00ee
00ee
007e
007e
003c
ENDCHAR
STARTCHAR copyright
ENCODING 169
SWIDTH 396 0
DWIDTH 22 0
BBX 20 19 1 0
BITMAP
03f800
0ffe00
1fff00
3c0700
300780
000380
380380
7c0380
fe0380
c60380
c60380
fe1fe0
7e7ff0
1ef3b0
0fc3b0
0f83b0
0f03b0
0e03f0
0e01e0
ENDCHAR
STARTCHAR ordfeminine
ENCODING 170
SWIDTH 360 0
DWIDTH 20 0
BBX 19 20 1 0
BITMAP
0000c0
1f80e0
3fc1e0
7fe3c0
ff7f80
e77f00
e77f80
ff7780
7ee380
3ce380
01c380
01c380
01c380
01c380
01c380
01c380
01c380
07ff80
07ff80
07ff00
ENDCHAR
STARTCHAR guillemotleft
ENCODING 171
SWIDTH 396 0
DWIDTH 22 0
BBX 21 20 0 0
BITMAP
000030
1ef038
3ff870
739df0
641fc0
fe1fc0
ff1fe0
e31ce0
6338e0
7778e0
3f70e0
1c70e0
0070e0
0070e0
0070e0
0070e0
0070e0
01ffe0
01ffe0
01ffc0
ENDCHAR
STARTCHAR notsign
ENCODING 172
SWIDTH 468 0
DWIDTH 26 0
BBX 23 19 1 0
BITMAP
07f80e
1ffc0e
3c1e0e
700f0e
fe070e
1f070e
1f070e
3c070e
38070e
38070e
38070e
38070e
3e0f8e
3f3fce
3bb7fe
31b77e
31b73e
3fbf1e
1f1e0e
ENDCHAR
STARTCHAR hyphen
ENCODING 173
SWIDTH 468 0
DWIDTH 26 0
BBX 23 28 1 -9
BITMAP
07f80e
1ffc0e
3c1e0e
700f0e
fe070e
1f070e
1f070e
3c070e
38070e
38070e
38070e
38070e
3e070e
3f070e
3b870e
31870e
319ffe
3f9ffe
1f1ffc
000000
001f0e
003f1e
00319e
00309c
0039bc
003ff8
001ff0
0007e0
ENDCHAR
STARTCHAR registered
ENCODING 174
SWIDTH 396 0
DWIDTH 22 0
BBX 18 28 1 -9
BITMAP
01fe00
07ff00
0f8780
1c03c0
3f81c0
07c1c0
07c1c0
0f01c0
0e01c0
0e01c0
0e01c0
0e01c0
3e01c0
7e01c0
c601c0
c601c0
c601c0
fe01c0
7c39c0
0039c0
0fb9c0
1ff1c0
3ffdc0
387fc0
38efc0
3fe7c0
1fc3c0
0f01c0
ENDCHAR
STARTCHAR macron
ENCODING 175
SWIDTH 396 0
DWIDTH 22 0
BBX 18 28 1 -9
BITMAP
01fe00
07ff00
0f8780
1c03c0
3f81c0
07c1c0
07c1c0
0f01c0
0e01c0
0e01c0
0e01c0
0e01c0
3e01c0
7e01c0
c601c0
c601c0
c601c0
fe01c0
7c61c0
0061c0
00e1c0
1fe1c0
3fc5c0
3bcfc0
31ffc0
3bffc0
3f33c0
1e21c0
ENDCHAR
STARTCHAR degree
ENCODING 176
SWIDTH 306 0
DWIDTH 17 0
BBX 17 30 -1 -11
BITMAP
07f800
0fff80
1e1f80
3f8200
3ff000
03fc00
003e00
079e00
0fce00
1dce00
18ee00
18ee00
1ffe00
0ffe00
003e00
003e00
001e00
001e00
001e00
000000
003c00
037e00
036600
036600
7f7e00
fe3e00
c74600
effe00
7db800
100000
ENDCHAR
STARTCHAR plusminus
ENCODING 177
SWIDTH 468 0
DWIDTH 26 0
BBX 23 19 0 0
BITMAP
1ef07c
3ff8fc
739cfe
641dce
fe3dce
ff79ce
e3738e
63738e
77770e
7e770e
1c760e
007e0e
007e0e
007c0e
007c0e
00780e
00780e
00700e
00700e
ENDCHAR
STARTCHAR twosuperior
ENCODING 178
SWIDTH 486 0
DWIDTH 27 0
BBX 24 19 1 0
BITMAP
0e3807
1ffc07
3fee07
700707
708707
e3e707
e7f707
e63707
e63707
e77707
77f707
71e707
39cf87
3bdfe7
1b9fff
1f1f3f
1f1f1f
1e1f0f
1c0e0f
ENDCHAR
STARTCHAR threesuperior
ENCODING 179
SWIDTH 486 0
DWIDTH 27 0
BBX 26 19 1 0
BITMAP
07f80e00
1ffc0e00
3c1e0e00
700f0e00
fe070e00
1f070e00
1f070e00
3c070e00
38070e00
38070e00
38070e00
38077f80
3e077fc0
3f07eec0
3b878ec0
31878ec0
31870ec0
3f870fc0
1f070780
ENDCHAR
STARTCHAR acute
ENCODING 180
SWIDTH 360 0
DWIDTH 20 0
BBX 16 19 1 0
BITMAP
07f0
1ff8
3ffe
780e
7087
e3e7
e7f7
e637
e637
e777
77f7
73e7
39c7
3bc7
3b87
1f07
1f07
1e07
1c07
ENDCHAR
STARTCHAR mu
ENCODING 181
SWIDTH 360 0
DWIDTH 20 0
BBX 16 19 1 0
BITMAP
0e38
1ffc
3fee
7007
7087
e3e7
e7f7
e637
e637
e777
77f7
71e7
39c7
3bc7
1b87
1f07
1f07
1e07
1c07
ENDCHAR
STARTCHAR paragraph
ENCODING 182
SWIDTH 360 0
DWIDTH 20 0
BBX 17 20 1 0
BITMAP
03f800
1ffc00
3ffe00
7c1f00
700780
fe0780
1f0380
1f0380
3c0380
380380
380380
380380
380380
3f0380
3f8380
318380
30c380
318380
1f8380
1f0380
ENDCHAR
STARTCHAR periodcentered
ENCODING 183
SWIDTH 396 0
DWIDTH 22 0
BBX 18 19 1 0
BITMAP
380780
7c0f80
ee1fc0
c61dc0
ee39c0
7e39c0
7e71c0
0e71c0
0ef1c0
0ee1c0
0ee1c0
0fc1c0
0fc1c0
0f81c0
0f81c0
0f01c0
0f01c0
0f01c0
0e01c0
ENDCHAR
STARTCHAR cedilla
ENCODING 184
SWIDTH 324 0
DWIDTH 18 0
BBX 16 19 1 0
BITMAP
0fe0
3ffe
787f
e000
ffc0
fff0
00f8
1c3c
1c1c
1c1c
1c1c
1c1c
1c1c
1c1c
1c1c
1c1c
7ffc
7ffc
7ff8
ENDCHAR
STARTCHAR onesuperior
ENCODING 185
SWIDTH 396 0
DWIDTH 22 0
BBX 20 19 1 0
BITMAP
7c0380
fe0380
e60380
c60380
e60380
7e0380
3e0380
0e0380
0e0380
0e0380
0e0380
0e1fe0
0e7ff0
0ef3b0
0fe3b0
0f83b0
0f03b0
0f03f0
0e01e0
ENDCHAR
STARTCHAR masculine
ENCODING 186
SWIDTH 378 0
DWIDTH 21 0
BBX 18 19 0 0
BITMAP
3c01c0
7e01c0
6701c0
e301c0
6701c0
7f01c0
3f01c0
0701c0
0701c0
0701c0
0701c0
0701c0
0701c0
0701c0
0701c0
0701c0
3fffc0
3fff80
3fff00
ENDCHAR
STARTCHAR guillemotright
ENCODING 187
SWIDTH 378 0
DWIDTH 21 0
BBX 18 26 0 0
BITMAP
0001c0
0001c0
0001c0
0001c0
0001c0
0001c0
0001c0
3c01c0
7e01c0
6701c0
e301c0
6701c0
7f01c0
3f01c0
0701c0
0701c0
0701c0
0701c0
0701c0
0701c0
0701c0
0701c0
0701c0
3fffc0
3fff80
3fff00
ENDCHAR
STARTCHAR onequarter
ENCODING 188
SWIDTH 378 0
DWIDTH 21 0
BBX 15 19 3 0
BITMAP
3c0e
7e0e
e60e
c60e
e60e
fe0e
fc0e
e00e
e10e
e38e
e7ce
efee
fcfe
fc7e
f83e
f01e
e01e
e00e
e00e
ENDCHAR
STARTCHAR onehalf
ENCODING 189
SWIDTH 378 0
DWIDTH 21 0
BBX 15 26 3 0
BITMAP
000e
000e
000e
000e
000e
000e
000e
3c0e
7e0e
e60e
c60e
e60e
fe0e
fc0e
e00e
e10e
e38e
e7ce
efee
fcfe
fc7e
f83e
f01e
e01e
e00e
e00e
ENDCHAR
STARTCHAR threequarters
ENCODING 190
SWIDTH 432 0
DWIDTH 24 0
BBX 21 19 0 0
BITMAP
3c0038
7e0838
e70c38
e31c38
e31e38
7f3e38
3f3f38
077738
0777b8
07f3f8
07e3f8
07e1f8
07c1f8
07c0f8
0780f8
078078
070078
070078
070038
ENDCHAR
STARTCHAR questiondown
ENCODING 191
SWIDTH 432 0
DWIDTH 24 0
BBX 21 26 0 0
BITMAP
000038
000038
000038
000038
000038
000038
000038
3c0038
7e0838
e70c38
e31c38
e31e38
7f3e38
3f3f38
077738
0777b8
07f3f8
07e3f8
07e1f8
07c1f8
07c0f8
0780f8
078078
070078
070078
070038
ENDCHAR
STARTCHAR Agrave
ENCODING 192
SWIDTH 396 0
DWIDTH 22 0
BBX 18 19 1 0
BITMAP
01fe00
07ff00
1f8780
3c03c0
3f81c0
07c1c0
07c1c0
0f01c0
0e01c0
0e01c0
0e01c0
0e01c0
3e01c0
fe01c0
c601c0
c601c0
c601c0
fe01c0
7c01c0
ENDCHAR
STARTCHAR Aacute
ENCODING 193
SWIDTH 378 0
DWIDTH 21 0
BBX 18 19 1 0
BITMAP
3c01c0
7e01c0
6301c0
e301c0
6301c0
7f01c0
3f01c0
0701c0
0701c0
0701c0
0f81c0
3ff1c0
7ff9c0
673dc0
671fc0
670fc0
6707c0
7f03c0
3e01c0
ENDCHAR
STARTCHAR Acircumflex
ENCODING 194
SWIDTH 360 0
DWIDTH 20 0
BBX 15 19 2 0
BITMAP
1e0e
3f0e
738e
718e
fb8e
ff0e
ee0e
700e
7c0e
3f0e
3f0e
7c0e
700e
700e
700e
700e
7ffe
7ffe
7ffc
ENDCHAR
STARTCHAR Atilde
ENCODING 195
SWIDTH 306 0
DWIDTH 17 0
BBX 16 19 1 0
BITMAP
1fe1
3fff
707f
f000
ffc0
fff0
0078
0038
001c
001c
001c
001c
00fc
01fc
019c
030c
019c
01f8
00f0
ENDCHAR
STARTCHAR Adiaeresis
ENCODING 196
SWIDTH 360 0
DWIDTH 20 0
BBX 17 30 1 -10
BITMAP
03f800
1ffc00
3ffe00
7c1f00
700780
fe0780
1f0380
1f0380
3c0380
380380
380380
380380
380380
3f0380
3f8380
318380
31c380
318380
1f8380
1f0380
000380
000380
000380
000380
000380
000380
000380
000380
000380
000380
ENDCHAR
STARTCHAR Aring
ENCODING 197
SWIDTH 360 0
DWIDTH 20 0
BBX 15 19 2 0
BITMAP
0fc0
3ff0
7ffc
e01c
400e
000e
1f8e
3fce
71ee
70ee
607e
607e
7e3e
7f3e
771e
631e
731e
7f0e
3e0e
ENDCHAR
STARTCHAR AE
ENCODING 198
SWIDTH 396 0
DWIDTH 22 0
BBX 18 29 1 -10
BITMAP
01fe00
07ff00
1f8780
3c03c0
3f81c0
07c1c0
07c1c0
0f01c0
0e01c0
0e01c0
0e01c0
0e01c0
3e01c0
fe01c0
c601c0
c601c0
c601c0
fe01c0
7c01c0
0001c0
0001c0
0001c0
0001c0
0001c0
0001c0
0001c0
0001c0
0001c0
0001c0
ENDCHAR
STARTCHAR Ccedilla
ENCODING 199
SWIDTH 324 0
DWIDTH 18 0
BBX 15 19 0 0
BITMAP
0fe0
3ff8
7ffc
f01c
600e
200e
000e
000e
000e
000e
000e
000e
007e
00fe
00ee
00c6
00c6
00fc
007c
ENDCHAR
STARTCHAR Egrave
ENCODING 200
SWIDTH 360 0
DWIDTH 20 0
BBX 18 20 1 0
BITMAP
000080
07f8c0
1fffc0
3c3f80
780f80
718f80
e3ff80
e7fb80
e67380
763380
777380
7fe380
3fc380
1e0380
1e0380
0e0380
0e0380
0e0380
0e0380
0e0380
ENDCHAR
STARTCHAR Eacute
ENCODING 201
SWIDTH 378 0
DWIDTH 21 0
BBX 22 19 1 0
BITMAP
7c01c0
7c01c0
ee01c0
c601c0
e601c0
fe01dc
7e79dc
0efddc
0ecdd8
0efdf8
0e79f0
0e3fc0
0e07c0
0e01c0
0e01c0
0e01c0
3fffc0
3fff80
3fff00
ENDCHAR
STARTCHAR Ecircumflex
ENCODING 202
SWIDTH 360 0
DWIDTH 20 0
BBX 16 21 2 0
BITMAP
0006
0007
0fce
3ffe
7ffc
e03c
403e
006e
1fee
3fce
31ee
70ee
707e
703e
7e3e
7f3e
731e
631e
631e
3f0e
3e0e
ENDCHAR
STARTCHAR Ediaeresis
ENCODING 203
SWIDTH 378 0
DWIDTH 21 0
BBX 19 19 0 0
BITMAP
3e07c0
7e0fc0
e71c60
c31c60
e70c60
7f0fc0
3f0fc0
073fe0
0779e0
0770e0
07e0e0
07c0e0
07c0e0
0780e0
0780e0
0700e0
0700e0
0700e0
0700e0
ENDCHAR
STARTCHAR Igrave
ENCODING 204
SWIDTH 432 0
DWIDTH 24 0
BBX 25 22 0 0
BITMAP
0000f000
0001fb00
0003bb80
3c031f00
7e03be00
6709fc00
e308f800
670c3800
7f1e3800
3f1e3800
073f3800
077fb800
0773b800
07f3f800
07e1f800
07c1f800
07c0f800
0780f800
07807800
07007800
07003800
07003800
ENDCHAR
STARTCHAR Iacute
ENCODING 205
SWIDTH 360 0
DWIDTH 20 0
BBX 15 19 2 0
BITMAP
0fe0
3ff8
fffc
e03c
400e
000e
3e0e
7f0e
730e
630e
730e
7f0e
7e0e
700e
700e
700e
7ffe
7ffe
3ffc
ENDCHAR
STARTCHAR Icircumflex
ENCODING 206
SWIDTH 360 0
DWIDTH 20 0
BBX 18 20 2 0
BITMAP
1fc100
7ffb80
7fffc0
e03f80
e01e00
fffe00
7ffe00
1fee00
1c0e00
3e0e00
7f0e00
630e00
670e00
7e0e00
7e0e00
700e00
700e00
7ffe00
7ffe00
3ffc00
ENDCHAR
STARTCHAR Idiaeresis
ENCODING 207
SWIDTH 342 0
DWIDTH 19 0
BBX 14 20 2 -1
BITMAP
3c1c
7e1c
e71c
e31c
e73c
fe3c
fe7c
f0fc
7ffc
3fdc
0f9c
001c
001c
001c
001c
003c
0078
01f8
01e0
0080
ENDCHAR
STARTCHAR ETH
ENCODING 208
SWIDTH 270 0
DWIDTH 15 0
BBX 13 19 1 0
BITMAP
3c38
7e38
fe38
e678
e6f0
fff0
7fe0
1f80
0000
0000
0000
3c38
7e38
fe38
e678
e6f0
fff0
7fe0
1f80
ENDCHAR
STARTCHAR Ntilde
ENCODING 209
SWIDTH 0 0
DWIDTH 0 0
BBX 16 8 -12 22
BITMAP
7c04
fe07
e60f
c61e
ee3c
7ff8
3ff0
0780
ENDCHAR
STARTCHAR Ograve
ENCODING 210
SWIDTH 288 0
DWIDTH 16 0
BBX 14 20 0 0
BITMAP
0fe0
1ff8
3ff8
787c
703c
e01c
001c
001c
001c
001c
001c
001c
001c
001c
001c
001c
001c
001c
001c
001c
ENDCHAR
STARTCHAR Oacute
ENCODING 211
SWIDTH 288 0
DWIDTH 16 0
BBX 24 29 -10 0
BITMAP
3c0000
7e0000
670000
e30000
670000
7e0000
3c0000
000000
000000
0003f8
0007fe
000ffe
001e1f
001c0f
003807
000007
000007
000007
000007
000007
000007
000007
000007
000007
000007
000007
000007
000007
000007
ENDCHAR
STARTCHAR Ocircumflex
ENCODING 212
SWIDTH 0 0
DWIDTH 0 0
BBX 15 8 -17 22
BITMAP
07e0
1ff0
3c78
701c
7fec
fffc
007e
0006
ENDCHAR
STARTCHAR Otilde
ENCODING 213
SWIDTH 36 0
DWIDTH 2 0
BBX 15 10 -16 22
BITMAP
000e
000e
0fee
1ffe
387e
701e
ffee
fffe
003e
0002
ENDCHAR
STARTCHAR Odiaeresis
ENCODING 214
SWIDTH 0 0
DWIDTH 0 0
BBX 15 11 -18 22
BITMAP
0008
003c
007e
07e6
1ffe
387c
701c
7fec
fffc
003e
0002
ENDCHAR
STARTCHAR multiply
ENCODING 215
SWIDTH 36 0
DWIDTH 2 0
BBX 15 10 -16 22
BITMAP
00ce
00ce
0fce
1ffe
387e
701e
ffee
fffe
003e
0002
ENDCHAR
STARTCHAR Ooblique
ENCODING 216
SWIDTH 0 0
DWIDTH 0 0
BBX 7 12 -10 -14
BITMAP
38
7c
fe
c6
c6
fe
7e
3e
0e
0e
0e
0e
ENDCHAR
STARTCHAR Ugrave
ENCODING 217
SWIDTH 0 0
DWIDTH 0 0
BBX 12 12 -15 -14
BITMAP
3870
7e70
fe70
e770
e770
ff70
7f70
3f70
0f70
07f0
07f0
03c0
ENDCHAR
STARTCHAR Uacute
ENCODING 218
SWIDTH 0 0
DWIDTH 0 0
BBX 3 4 -6 -7
BITMAP
40
e0
e0
40
ENDCHAR
STARTCHAR Ucircumflex
ENCODING 219
SWIDTH 0 0
DWIDTH 0 0
BBX 3 4 -6 -14
BITMAP
40
e0
e0
60
ENDCHAR
STARTCHAR Udiaeresis
ENCODING 220
SWIDTH 0 0
DWIDTH 0 0
BBX 1 1 0 0
BITMAP
00
ENDCHAR
STARTCHAR Yacute
ENCODING 221
SWIDTH 0 0
DWIDTH 0 0
BBX 1 1 0 0
BITMAP
00
ENDCHAR
STARTCHAR THORN
ENCODING 222
SWIDTH 0 0
DWIDTH 0 0
BBX 1 1 0 0
BITMAP
00
ENDCHAR
STARTCHAR ssharp
ENCODING 223
SWIDTH 414 0
DWIDTH 23 0
BBX 19 27 2 -2
BITMAP
00e000
00e000
fffc00
ffff00
ffff80
ffffc0
f8ffc0
f8e3c0
f8e3c0
f8e3c0
f8ffc0
ffff80
ffff00
ffff80
ffffc0
f8ffc0
f8e3e0
f8e3e0
f8e3e0
f8e3e0
f8ffe0
ffffc0
ffff80
ffff00
fffe00
00e000
00e000
ENDCHAR
STARTCHAR agrave
ENCODING 224
SWIDTH 180 0
DWIDTH 10 0
BBX 7 19 3 0
BITMAP
e0
e0
e0
e0
e0
e0
e0
e0
e0
e0
e0
e0
fc
fe
c6
c6
ce
7c
7c
ENDCHAR
STARTCHAR aacute
ENCODING 225
SWIDTH 342 0
DWIDTH 19 0
BBX 16 19 3 0
BITMAP
e070
e070
e070
e070
e070
e070
e070
e070
e070
e070
e070
e070
fc7c
fe7e
c667
c663
ce67
7c3e
7c3c
ENDCHAR
STARTCHAR acircumflex
ENCODING 226
SWIDTH 234 0
DWIDTH 13 0
BBX 14 34 -1 0
BITMAP
1f84
3ff8
7ffc
fc78
3f00
0700
0380
0380
0380
0380
0380
0380
0380
0380
0380
0380
0380
0380
0380
0380
0380
0380
0380
0380
0380
0380
0380
03f0
03f8
03b8
0318
03b8
01f8
01f0
ENDCHAR
STARTCHAR atilde
ENCODING 227
SWIDTH 234 0
DWIDTH 13 0
BBX 14 34 -2 0
BITMAP
1f00
3f80
7380
79c0
7dc0
edc0
6dc0
7dc0
39c0
01c0
01c0
01c0
01c0
01c0
01c0
01c0
01c0
01c0
01c0
01c0
01c0
01c0
01c0
01c0
01c0
01c0
01c0
01f8
01fc
01dc
018c
01cc
00fc
00f8
ENDCHAR
STARTCHAR adiaeresis
ENCODING 228
SWIDTH 270 0
DWIDTH 15 0
BBX 15 34 -1 0
BITMAP
61c0
e3e0
63e0
77e0
77e0
37e0
3ee0
3ee0
3ee0
1ce0
1ce0
00e0
00e0
00e0
00e0
00e0
00e0
00e0
00e0
00e0
00e0
00e0
00e0
00e0
00e0
00e0
00e0
00fc
00fe
00ee
00c6
00ee
007e
007c
ENDCHAR
STARTCHAR aring
ENCODING 229
SWIDTH 288 0
DWIDTH 16 0
BBX 14 30 0 -10
BITMAP
0fe0
1ff8
3ff8
787c
703c
e01c
001c
001c
001c
001c
001c
001c
001c
001c
001c
001c
001c
001c
001c
001c
001c
001c
001c
001c
001c
001c
001c
001c
001c
001c
ENDCHAR
STARTCHAR ae
ENCODING 230
SWIDTH 396 0
DWIDTH 22 0
BBX 14 26 5 -7
BITMAP
1e70
3ff8
7ff8
713c
601c
ff1c
ff1c
731c
731c
3f1c
1e1c
001c
001c
001c
001c
001c
001c
001c
001c
001c
001c
001c
0078
01f8
01f0
01c0
ENDCHAR
STARTCHAR ccedilla
ENCODING 231
SWIDTH 0 0
DWIDTH 0 0
BBX 14 12 -16 22
BITMAP
001c
001c
001c
3ff8
7ff0
f000
e470
fff8
ffc8
71d8
70f8
3070
ENDCHAR
STARTCHAR egrave
ENCODING 232
SWIDTH 0 0
DWIDTH 0 0
BBX 3 6 -6 35
BITMAP
e0
e0
e0
e0
e0
e0
ENDCHAR
STARTCHAR eacute
ENCODING 233
SWIDTH 0 0
DWIDTH 0 0
BBX 11 8 -10 33
BITMAP
30e0
f860
c860
c8e0
f8c0
7bc0
3f80
3e00
ENDCHAR
STARTCHAR ecircumflex
ENCODING 234
SWIDTH 0 0
DWIDTH 0 0
BBX 14 7 -14 33
BITMAP
7bdc
ffdc
c2dc
f8dc
fcf8
7df0
79e0
ENDCHAR
STARTCHAR ediaeresis
ENCODING 235
SWIDTH 0 0
DWIDTH 0 0
BBX 8 8 -8 33
BITMAP
38
38
38
ff
ff
ff
38
38
ENDCHAR
STARTCHAR igrave
ENCODING 236
SWIDTH 0 0
DWIDTH 0 0
BBX 10 10 -12 31
BITMAP
00c0
01c0
3f80
7f00
f800
fc00
cc00
ec00
7800
3000
ENDCHAR
STARTCHAR iacute
ENCODING 237
SWIDTH 0 0
DWIDTH 0 0
BBX 7 7 -10 22
BITMAP
38
7c
c6
c6
c6
7c
38
ENDCHAR
STARTCHAR icircumflex
ENCODING 238
SWIDTH 0 0
DWIDTH 0 0
BBX 7 7 -10 28
BITMAP
38
7c
c6
c6
c6
7c
38
ENDCHAR
STARTCHAR idiaeresis
ENCODING 239
SWIDTH 342 0
DWIDTH 19 0
BBX 19 19 0 0
BITMAP
03f800
0ffe00
1fff00
3c0780
71f1c0
63f8c0
e7fce0
cffc60
cffe60
cffe60
cffe60
cffc60
e7fce0
63f8c0
71f1c0
380380
1fff00
0ffe00
03f800
ENDCHAR
STARTCHAR eth
ENCODING 240
SWIDTH 342 0
DWIDTH 19 0
BBX 16 14 2 0
BITMAP
07e0
1ff8
3ffc
7c3e
781e
f00f
f00f
e007
f00f
f00f
781e
3ffc
1ff8
0ff0
ENDCHAR
STARTCHAR ntilde
ENCODING 241
SWIDTH 360 0
DWIDTH 20 0
BBX 16 16 2 -2
BITMAP
07e0
1ff8
3ffc
781e
f38f
e7e7
efe7
ee67
ee67
ffe7
7fe7
3fce
1f9e
003c
0018
0008
ENDCHAR
STARTCHAR ograve
ENCODING 242
SWIDTH 432 0
DWIDTH 24 0
BBX 20 20 1 0
BITMAP
300000
700000
780000
380000
380000
380000
38f1c0
39fbe0
3bdff0
3be470
3ff470
3f3870
3f1870
3b3870
3bf070
39e070
3c0070
1ffff0
1fffe0
07ffc0
ENDCHAR
STARTCHAR oacute
ENCODING 243
SWIDTH 414 0
DWIDTH 23 0
BBX 19 14 2 0
BITMAP
0f0f00
3fdf80
7fffc0
70f1c0
f070e0
e070e0
e070e0
fe70e0
ff70e0
f770e0
e370e0
7771e0
7f71c0
3c71c0
ENDCHAR
STARTCHAR ocircumflex
ENCODING 244
SWIDTH 414 0
DWIDTH 23 0
BBX 22 22 2 0
BITMAP
000010
00001c
00001c
00003c
00003c
000038
000078
0000f8
07fff0
1fffe0
3fffc0
7c6000
f1f800
f3f800
e39c00
f39c00
f3fc00
f9f800
7cff80
3ffff0
1fffe0
0ff0e0
ENDCHAR
STARTCHAR otilde
ENCODING 245
SWIDTH 432 0
DWIDTH 24 0
BBX 22 22 2 0
BITMAP
000010
00001c
00003c
00f03c
01f83c
03fc38
039c78
039cf8
07fff0
1fffe0
7fff80
7c6000
f9f800
f3f800
f39c00
f39c00
f3fc00
f9f800
7cff80
3ffff0
1fffe0
0ff0e0
ENDCHAR
STARTCHAR odiaeresis
ENCODING 246
SWIDTH 306 0
DWIDTH 17 0
BBX 16 21 0 0
BITMAP
7000
7000
7000
3800
3800
3800
1cf0
1ff8
1ffc
1f3e
080e
0007
0307
0f87
1fc7
1cc7
1ccf
1fde
1ffc
0ff8
03f0
ENDCHAR
STARTCHAR division
ENCODING 247
SWIDTH 432 0
DWIDTH 24 0
BBX 22 22 1 -1
BITMAP
000010
00001c
00003c
000038
000038
000038
000038
000838
1fbe38
3fff38
7be7b8
71e3b8
f0c3b8
f003b8
fe03b8
ff83b8
7f83f8
7987f0
7987e0
3f8fc0
1f0780
000200
ENDCHAR
STARTCHAR oslash
ENCODING 248
SWIDTH 414 0
DWIDTH 23 0
BBX 20 21 2 0
BITMAP
0000e0
000070
000070
000070
000070
000070
000070
07f8f0
1fffe0
3fffe0
7c1f80
700700
f00fc0
e21fc0
ef99e0
efdde0
7fffe0
7fffe0
3cffc0
3e7fc0
1e3f80
ENDCHAR
STARTCHAR ugrave
ENCODING 249
SWIDTH 378 0
DWIDTH 21 0
BBX 19 21 1 0
BITMAP
0001c0
0001c0
0001e0
0001e0
0000e0
0000e0
0000e0
079ce0
1fdfe0
3fffe0
7cfbc0
f07c00
f03c00
f01e00
f7de00
ffef00
feef00
7ef780
7fe780
3fe3c0
0fc300
ENDCHAR
STARTCHAR uacute
ENCODING 250
SWIDTH 990 0
DWIDTH 55 0
BBX 55 3 0 7
BITMAP
fffffffffffffe
fffffffffffffe
fffffffffffffe
ENDCHAR
STARTCHAR ucircumflex
ENCODING 251
SWIDTH 504 0
DWIDTH 28 0
BBX 28 3 0 7
BITMAP
fffffff0
fffffff0
fffffff0
ENDCHAR
STARTCHAR udiaeresis
ENCODING 252
SWIDTH 0 0
DWIDTH 0 0
BBX 7 11 -10 -22
BITMAP
7c
fe
c6
c6
ce
fe
7e
0e
0e
0e
0e
ENDCHAR
STARTCHAR yacute
ENCODING 253
SWIDTH 0 0
DWIDTH 0 0
BBX 12 12 -15 -23
BITMAP
7c70
fe70
c670
c670
ee70
7e70
3e70
0e70
0e70
0ff0
07e0
0180
ENDCHAR
STARTCHAR thorn
ENCODING 254
SWIDTH 414 0
DWIDTH 23 0
BBX 21 22 2 -1
BITMAP
01fc00
070700
1c01c0
300060
67f820
418e10
c18610
818608
818e08
81dc08
81b008
81b808
819c08
818e08
c18610
47c790
600030
300060
1800c0
0c0380
038e00
007000
ENDCHAR
STARTCHAR ydiaeresis
ENCODING 255
SWIDTH 0 0
DWIDTH 0 0
BBX 1 1 0 0
BITMAP
00
ENDCHAR
ENDFONT
